<svg viewBox="0 0 125 39" xmlns="http://www.w3.org/2000/svg" xmlns:xlink="http://www.w3.org/1999/xlink" width="125.000000" height="39.000000" fill="none">
	<rect id="Airbnb_logo 2" width="125.000000" height="39.000000" x="0.000000" y="0.000000" fill="rgb(36,77,77)" fill-opacity="0" />
	<path id="logo 1" d="M65.8797 9.96911C65.8797 11.3544 64.7317 12.4879 63.3286 12.4879C61.9256 12.4879 60.7776 11.3544 60.7776 9.96911C60.7776 8.58377 61.8618 7.45031 63.3286 7.45031C64.7955 7.4818 65.8797 8.61525 65.8797 9.96911ZM55.4205 15.0067C55.4205 15.2271 55.4205 15.6364 55.4205 15.6364C55.4205 15.6364 54.2087 14.0936 51.6258 14.0936C47.3848 14.0936 44.0365 17.3051 44.0365 21.713C44.0365 26.1209 47.321 29.3323 51.6258 29.3323C54.2406 29.3323 55.4205 27.7581 55.4205 27.7581L55.4205 28.4193C55.4205 28.7341 55.6437 28.9545 55.9626 28.9545L59.1194 28.9545L59.1194 14.4714C59.1194 14.4714 56.2177 14.4714 55.9626 14.4714C55.6437 14.4714 55.4205 14.7548 55.4205 15.0067ZM55.4205 24.2948C54.8465 25.1448 53.6666 25.869 52.2636 25.869C49.7763 25.869 47.8631 24.3262 47.8631 21.713C47.8631 19.0997 49.7763 17.557 52.2636 17.557C53.6348 17.557 54.8784 18.3126 55.4205 19.1312L55.4205 24.2948ZM61.4791 14.4714L65.2419 14.4714L65.2419 28.9545L61.4791 28.9545L61.4791 14.4714ZM117.442 14.0936C114.859 14.0936 113.648 15.6364 113.648 15.6364L113.648 7.51328L109.885 7.51328L109.885 28.986C109.885 28.986 112.787 28.986 113.042 28.986C113.361 28.986 113.584 28.7026 113.584 28.4508L113.584 27.7896C113.584 27.7896 114.795 29.3638 117.378 29.3638C121.619 29.3638 124.968 26.1209 124.968 21.7445C125 17.3366 121.651 14.0936 117.442 14.0936ZM116.836 25.8375C115.401 25.8375 114.253 25.1134 113.679 24.2633L113.679 19.0997C114.253 18.3441 115.529 17.5255 116.836 17.5255C119.324 17.5255 121.237 19.0683 121.237 21.6815C121.237 24.2948 119.324 25.8375 116.836 25.8375ZM107.971 20.3591L107.971 28.986L104.209 28.986L104.209 20.7999C104.209 18.4071 103.443 17.431 101.307 17.431C100.159 17.431 99.011 17.9978 98.2776 18.8479L98.2776 28.9545L94.5149 28.9545L94.5149 14.4714L97.4804 14.4714C97.7993 14.4714 98.0225 14.7548 98.0225 15.0067L98.0225 15.6364C99.1067 14.5029 100.574 14.0936 102.008 14.0936C103.635 14.0936 105.006 14.5659 106.122 15.479C107.461 16.5495 107.971 17.9348 107.971 20.3591ZM85.4268 14.0936C82.8439 14.0936 81.6322 15.6364 81.6322 15.6364L81.6322 7.51328L77.8694 7.51328L77.8694 28.986C77.8694 28.986 80.7712 28.986 81.0263 28.986C81.3452 28.986 81.5684 28.7026 81.5684 28.4508L81.5684 27.7896C81.5684 27.7896 82.7802 29.3638 85.3631 29.3638C89.6041 29.3638 92.9524 26.1209 92.9524 21.7445C93.0161 17.3366 89.6998 14.0936 85.4268 14.0936ZM84.821 25.8375C83.386 25.8375 82.2381 25.1134 81.6641 24.2633L81.6641 19.0997C82.2381 18.3441 83.5136 17.5255 84.821 17.5255C87.3082 17.5255 89.2215 19.0683 89.2215 21.6815C89.2215 24.2948 87.3082 25.8375 84.821 25.8375ZM74.6488 14.0936C75.7967 14.0936 76.3707 14.2825 76.3707 14.2825L76.3707 17.7144C76.3707 17.7144 73.2457 16.6754 71.3006 18.8793L71.3006 29.0175L67.5378 29.0175L67.5378 14.4714C67.5378 14.4714 70.4396 14.4714 70.6947 14.4714C71.0136 14.4714 71.2368 14.7548 71.2368 15.0067L71.2368 15.6364C71.9702 14.8178 73.5008 14.0936 74.6488 14.0936ZM35.7457 27.6636C35.5544 27.1914 35.3631 26.6876 35.1717 26.2783C34.8529 25.5856 34.534 24.9244 34.2789 24.3262L34.247 24.2948C31.5684 18.5015 28.6666 12.6453 25.6054 6.88358L25.4779 6.66319C25.159 6.09646 24.8401 5.46676 24.5531 4.83706C24.1705 4.14439 23.7878 3.42024 23.1501 2.72757C21.9064 1.18481 20.1207 0.334717 18.2075 0.334717C16.2623 0.334717 14.5085 1.18481 13.2011 2.63312C12.6271 3.32579 12.1807 4.04994 11.798 4.74261C11.4791 5.37231 11.1603 5.97052 10.8733 6.56873L10.7457 6.78913C7.74827 12.5824 4.8146 18.4386 2.10414 24.2003L2.07225 24.2633C1.78526 24.893 1.49827 25.5227 1.17939 26.2153C0.988067 26.6246 0.796741 27.0969 0.605414 27.6007C0.0952103 29.0175 -0.0642285 30.3713 0.127098 31.7567C0.541639 34.6533 2.51868 37.0776 5.19725 38.1481C6.21766 38.5574 7.26996 38.7778 8.35414 38.7778C8.67302 38.7778 9.05567 38.7463 9.37455 38.7148C10.6501 38.5574 11.9893 38.1481 13.2649 37.3925C14.8592 36.5109 16.3899 35.22 18.1118 33.3939C19.8337 35.2515 21.3962 36.5109 22.9587 37.3925C24.2342 38.1166 25.5735 38.5574 26.849 38.7148C27.1679 38.7463 27.5506 38.7778 27.8694 38.7778C28.9536 38.7778 30.0697 38.5889 31.0263 38.1481C33.7687 37.0776 35.6819 34.5903 36.0965 31.7567C36.4154 30.4343 36.2559 29.0805 35.7457 27.6636ZM18.1437 29.6472C16.0391 27.0339 14.6679 24.5466 14.1896 22.4686C13.9983 21.587 13.9664 20.7999 14.062 20.1073C14.1258 19.4776 14.3809 18.9423 14.6998 18.5015C15.4332 17.4625 16.6768 16.8013 18.1437 16.8013C19.6105 16.8013 20.886 17.431 21.5876 18.5015C21.9064 18.9738 22.1296 19.509 22.2253 20.1073C22.3529 20.7999 22.2891 21.6185 22.0978 22.4686C21.6194 24.5466 20.2483 27.0025 18.1437 29.6472ZM33.7049 31.4733C33.4179 33.4883 32.0786 35.22 30.1654 35.9757C29.2406 36.3535 28.2202 36.4794 27.1998 36.3535C26.2113 36.2275 25.2546 35.9442 24.2342 35.346C22.8312 34.5903 21.4281 33.3939 19.77 31.5993C22.3529 28.4822 23.9154 25.6171 24.4893 23.0668C24.7763 21.8704 24.8082 20.7999 24.6807 19.7924C24.5212 18.8164 24.1705 17.9348 23.6284 17.1792C22.4166 15.4475 20.3758 14.44 18.1118 14.44C15.8478 14.44 13.8069 15.479 12.5952 17.1792C12.0531 17.9348 11.7024 18.8479 11.5429 19.7924C11.3835 20.7999 11.4154 21.9019 11.7342 23.0668C12.3082 25.6171 13.9345 28.5137 16.4536 31.6307C14.8592 33.3939 13.4243 34.5903 11.9893 35.3774C10.9689 35.9442 10.0123 36.259 9.02378 36.385C7.97149 36.5109 6.95108 36.3535 6.05822 36.0071C4.14496 35.2515 2.77378 33.4883 2.51868 31.5048C2.39113 30.5288 2.48679 29.5842 2.86944 28.5137C2.997 28.1359 3.18832 27.7581 3.37965 27.2858C3.66664 26.6561 3.95363 26.0264 4.27251 25.3652L4.30439 25.3023C6.98296 19.572 9.88475 13.6843 12.8822 7.98556L13.0098 7.76516C13.3286 7.19843 13.6475 6.56873 13.9345 6.002C14.2534 5.37231 14.6041 4.80558 15.0187 4.30182C15.8478 3.38875 16.9319 2.885 18.1437 2.885C19.3554 2.885 20.4396 3.38875 21.2687 4.30182C21.6832 4.80558 22.034 5.37231 22.3529 6.002C22.6717 6.56873 22.9906 7.19843 23.2776 7.76516L23.4052 7.98556C26.3707 13.7158 29.2725 19.6035 31.9511 25.3337L31.9511 25.3652C32.27 25.9949 32.5251 26.6876 32.8439 27.2858C33.0353 27.7581 33.2266 28.1359 33.3541 28.5137C33.7368 29.4898 33.8643 30.4658 33.7049 31.4733Z" fill="rgb(36,77,77)" fill-rule="nonzero" />
</svg>
