<svg viewBox="0 0 24 24" xmlns="http://www.w3.org/2000/svg" xmlns:xlink="http://www.w3.org/1999/xlink" width="24.000000" height="24.000000" fill="none" customFrame="#000000">
	<defs>
		<clipPath id="clipPath_3">
			<rect width="24.000000" height="24.000000" x="0.000000" y="0.000000" fill="rgb(255,255,255)" />
		</clipPath>
	</defs>
	<g id="Group 8927">
		<g id="bed (1) 1" clip-path="url(#clipPath_3)" customFrame="url(#clipPath_3)">
			<rect id="bed (1) 1" width="24.000000" height="24.000000" x="0.000000" y="0.000000" fill="rgb(102,102,102)" fill-opacity="0" />
			<g id="Group">
				<path id="Vector" d="M1.99181 13.4275L22.0084 13.4275C22.8334 13.4275 23.5021 12.7587 23.5021 11.9337C23.5021 11.1087 22.8334 10.4399 22.0084 10.4399L1.99181 10.4399C1.16681 10.4399 0.498047 11.1087 0.498047 11.9337C0.498 12.7587 1.16681 13.4275 1.99181 13.4275Z" fill="rgb(102,102,102)" fill-rule="nonzero" />
				<path id="Vector" d="M13.4938 7.21802C13.0578 7.21802 12.7031 7.57267 12.7031 8.00866L12.7031 9.03367L18.8221 9.03367L18.8221 8.00866C18.8221 7.57267 18.4675 7.21802 18.0315 7.21802L13.4938 7.21802Z" fill="rgb(102,102,102)" fill-rule="nonzero" />
				<path id="Vector" d="M3.77151 8.00865C3.77151 6.79726 4.75701 5.81176 5.9684 5.81176L10.5061 5.81176C11.0826 5.81176 11.6076 6.03526 11.9999 6.39976C12.3922 6.03526 12.9172 5.81176 13.4937 5.81176L18.0314 5.81176C19.2428 5.81176 20.2283 6.79726 20.2283 8.00865L20.2283 9.03367L22.5106 9.03367L22.5106 4.19054C22.5106 3.36554 21.8418 2.69678 21.0168 2.69678L2.98302 2.69678C2.15802 2.69678 1.48926 3.36554 1.48926 4.19054L1.48926 9.03367L3.77151 9.03367L3.77151 8.00865Z" fill="rgb(102,102,102)" fill-rule="nonzero" />
				<path id="Vector" d="M5.96838 7.21802C5.53239 7.21802 5.17773 7.57267 5.17773 8.00866L5.17773 9.03367L11.2968 9.03367L11.2968 8.00866C11.2968 7.57267 10.9421 7.21802 10.5061 7.21802L5.96838 7.21802Z" fill="rgb(102,102,102)" fill-rule="nonzero" />
				<path id="Vector" d="M0 14.8337L0 21.3033L1.40625 21.3033L1.40625 18.7394L22.5938 18.7394L22.5938 21.3033L24 21.3033L24 14.8337L0 14.8337Z" fill="rgb(102,102,102)" fill-rule="nonzero" />
			</g>
		</g>
	</g>
</svg>
