<svg viewBox="0 0 50 50" xmlns="http://www.w3.org/2000/svg" xmlns:xlink="http://www.w3.org/1999/xlink" width="50.000000" height="50.000000" fill="none">
	<rect id="shield 3" width="50.000000" height="50.000000" x="0.000000" y="0.000000" fill="rgb(255,255,255)" fill-opacity="0" />
	<g id="surface1">
		<path id="Vector" d="M46.239 13.5661L46.2374 13.5272C46.2157 13.047 46.2012 12.5388 46.1924 11.9735C46.1516 9.21664 43.9601 6.93622 41.2028 6.7821C35.4541 6.46129 31.0069 4.58675 27.2071 0.883073L27.1747 0.852174C25.9353 -0.284221 24.0657 -0.284221 22.8259 0.852174L22.7935 0.883073C18.9937 4.58675 14.5465 6.46129 8.7978 6.78249C6.04093 6.93622 3.84901 9.21664 3.80819 11.9739C3.7998 12.5354 3.78492 13.0435 3.76318 13.5272L3.76089 13.6176C3.64912 19.4797 3.51027 26.7753 5.9509 33.3972C7.29291 37.0387 9.32538 40.2041 11.9915 42.8061C15.028 45.7693 19.0051 48.1219 23.8124 49.798C23.9688 49.8526 24.1313 49.8968 24.2969 49.93C24.5303 49.9766 24.7653 49.9998 25.0003 49.9998C25.2353 49.9998 25.4707 49.9766 25.7037 49.93C25.8693 49.8968 26.0329 49.8522 26.1901 49.7973C30.9916 48.118 34.9646 45.7644 37.9985 42.8015C40.6634 40.1988 42.6959 37.0326 44.039 33.3903C46.4888 26.7486 46.3503 19.4392 46.239 13.5661ZM41.2863 32.3752C38.7122 39.3546 33.4575 44.1477 25.2219 47.0278C25.1926 47.0377 25.1613 47.0465 25.1289 47.053C25.0438 47.0698 24.9572 47.0698 24.871 47.0526C24.8389 47.0461 24.8077 47.0377 24.7787 47.0278C16.5344 44.1531 11.2762 39.3626 8.70396 32.3829C6.45444 26.279 6.58185 19.5819 6.69439 13.6737L6.69515 13.6409C6.71804 13.1332 6.7333 12.6014 6.74169 12.017C6.76 10.7929 7.73503 9.78007 8.96145 9.71178C12.2146 9.53021 15.0726 8.90154 17.6986 7.78995C20.3212 6.67987 22.6505 5.11509 24.8187 3.00633C24.929 2.91325 25.072 2.91287 25.1819 3.00633C27.3505 5.11509 29.6798 6.67987 32.302 7.78995C34.928 8.90154 37.786 9.53021 41.0395 9.71178C42.266 9.78007 43.241 10.7929 43.2589 12.0174C43.2677 12.6048 43.283 13.1366 43.3058 13.6409C43.418 19.556 43.5424 26.2584 41.2863 32.3752Z" fill="rgb(36,77,77)" fill-rule="nonzero" />
		<path id="Vector" d="M24.9998 12.54C18.1287 12.54 12.5391 18.1301 12.5391 25.0007C12.5391 31.8718 18.1287 37.4618 24.9998 37.4618C31.8704 37.4618 37.4605 31.8718 37.4605 25.0007C37.4605 18.1301 31.8704 12.54 24.9998 12.54ZM24.9998 34.5276C19.7466 34.5276 15.4729 30.254 15.4729 25.0007C15.4729 19.7475 19.7466 15.4739 24.9998 15.4739C30.2526 15.4739 34.5262 19.7475 34.5262 25.0007C34.5262 30.254 30.2526 34.5276 24.9998 34.5276Z" fill="rgb(36,77,77)" fill-rule="nonzero" />
		<path id="Vector" d="M28.5806 21.1323L22.7929 26.9199L21.222 25.349C20.6491 24.7761 19.7202 24.7761 19.1472 25.349C18.5746 25.922 18.5746 26.8509 19.1472 27.4235L21.7557 30.032C22.0422 30.3185 22.4176 30.4615 22.7929 30.4615C23.1683 30.4615 23.5437 30.3185 23.8301 30.032L30.6554 23.2067C31.228 22.6337 31.228 21.7049 30.6554 21.1323C30.0824 20.5589 29.1535 20.5589 28.5806 21.1323Z" fill="rgb(36,77,77)" fill-rule="nonzero" />
	</g>
</svg>
