<svg viewBox="0 0 24 24" xmlns="http://www.w3.org/2000/svg" xmlns:xlink="http://www.w3.org/1999/xlink" width="24.000000" height="24.000000" fill="none" customFrame="#000000">
	<defs>
		<clipPath id="clipPath_1">
			<rect width="24.000000" height="24.000000" x="0.000000" y="0.000000" fill="rgb(255,255,255)" />
		</clipPath>
	</defs>
	<g id="Group 8925">
		<g id="restaurant 1" clip-path="url(#clipPath_1)" customFrame="url(#clipPath_1)">
			<rect id="restaurant 1" width="24.000000" height="24.000000" x="0.000000" y="0.000000" fill="rgb(102,102,102)" fill-opacity="0" />
			<g id="Group">
				<path id="Vector" d="M19.6216 9.78949C19.9025 9.78949 20.1302 9.5618 20.1302 9.28091L20.1302 7.64945C20.1302 7.36856 19.9025 7.14087 19.6216 7.14087L18.8977 7.14528L16.5225 9.78949L19.6216 9.78949Z" fill="rgb(102,102,102)" fill-rule="nonzero" />
				<path id="Vector" d="M4.37675 9.78917L7.50026 9.78917L5.08382 7.14062L4.37675 7.14062C4.09585 7.14062 3.86816 7.36831 3.86816 7.64921L3.86816 9.28054C3.86816 9.56148 4.09585 9.78917 4.37675 9.78917Z" fill="rgb(102,102,102)" fill-rule="nonzero" />
				<path id="Vector" d="M12.2905 12.4121L17.0037 7.14087L6.99414 7.14087L11.7848 12.4141C11.9206 12.5636 12.1559 12.5626 12.2905 12.4121Z" fill="rgb(102,102,102)" fill-rule="nonzero" />
				<path id="Vector" d="M13.6171 19.8301L12.7415 19.8301L12.7415 13.9114C12.5315 14.0327 12.2915 14.0989 12.0439 14.0999C12.042 14.0999 12.0402 14.0999 12.0383 14.0999C11.7889 14.0999 11.5469 14.0336 11.3352 13.9114L11.3352 19.8301L10.3799 19.8301C9.99159 19.8301 9.67676 20.1449 9.67676 20.5332C9.67676 20.9216 9.99159 21.2364 10.3799 21.2364L13.6172 21.2364C14.0055 21.2364 14.3203 20.9216 14.3203 20.5332C14.3203 20.1449 14.0054 19.8301 13.6171 19.8301Z" fill="rgb(102,102,102)" fill-rule="nonzero" />
				<path id="Vector" d="M5.92969 11.7456L1.40635 11.7456L1.40635 3.41045C1.40635 3.02211 1.09152 2.70728 0.703176 2.70728C0.314835 2.70728 0 3.02211 0 3.41045L0 20.5894C0 20.9777 0.314835 21.2925 0.703176 21.2925C1.09152 21.2925 1.40635 20.9777 1.40635 20.5894L1.40635 15.337L6.51905 15.337L6.51905 20.5894C6.51905 20.9777 6.83388 21.2925 7.22223 21.2925C7.61057 21.2925 7.9254 20.9777 7.9254 20.5894L7.9254 13.7413C7.9254 12.6409 7.03012 11.7456 5.92969 11.7456Z" fill="rgb(102,102,102)" fill-rule="nonzero" />
				<path id="Vector" d="M23.2971 2.70728C22.9088 2.70728 22.5939 3.02211 22.5939 3.41045L22.5939 11.7456L18.1754 11.7456C17.0749 11.7456 16.1797 12.6409 16.1797 13.7413L16.1797 20.5894C16.1797 20.9777 16.4945 21.2925 16.8829 21.2925C17.2712 21.2925 17.586 20.9777 17.586 20.5894L17.586 15.3359L22.594 15.3359L22.594 20.5894C22.594 20.9777 22.9088 21.2925 23.2972 21.2925C23.6855 21.2925 24.0003 20.9777 24.0003 20.5894L24.0003 3.41045C24.0003 3.02211 23.6855 2.70728 23.2971 2.70728Z" fill="rgb(102,102,102)" fill-rule="nonzero" />
			</g>
		</g>
	</g>
</svg>
