<svg viewBox="0 0 16 16" xmlns="http://www.w3.org/2000/svg" xmlns:xlink="http://www.w3.org/1999/xlink" width="16.000000" height="16.000000" fill="none">
	<rect id="email 1" width="16.000000" height="16.000000" x="0.000000" y="0.000000" fill="rgb(127,127,127)" fill-opacity="0" />
	<g id="Group">
		<g id="Group">
			<path id="Vector" d="M10.6055 8.08232L15.9994 11.4923L15.9994 4.52832L10.6055 8.08232Z" fill="rgb(127,127,127)" fill-rule="nonzero" />
		</g>
	</g>
	<g id="Group">
		<g id="Group">
			<path id="Vector" d="M0 4.52832L0 11.4923L5.394 8.08232L0 4.52832Z" fill="rgb(127,127,127)" fill-rule="nonzero" />
		</g>
	</g>
	<g id="Group">
		<g id="Group">
			<path id="Vector" d="M15.0003 2.5L1.00027 2.5C0.501273 2.5 0.105273 2.872 0.0302734 3.351L8.00027 8.602L15.9703 3.351C15.8953 2.872 15.4993 2.5 15.0003 2.5Z" fill="rgb(127,127,127)" fill-rule="nonzero" />
		</g>
	</g>
	<g id="Group">
		<g id="Group">
			<path id="Vector" d="M9.69023 8.68655L8.27523 9.61855C8.19123 9.67355 8.09623 9.70055 8.00023 9.70055C7.90423 9.70055 7.80923 9.67355 7.72523 9.61855L6.31023 8.68555L0.0322266 12.6565C0.109227 13.1315 0.503227 13.5005 1.00023 13.5005L15.0002 13.5005C15.4972 13.5005 15.8912 13.1315 15.9682 12.6565L9.69023 8.68655Z" fill="rgb(127,127,127)" fill-rule="nonzero" />
		</g>
	</g>
</svg>
