<svg viewBox="0 0 20 20" xmlns="http://www.w3.org/2000/svg" xmlns:xlink="http://www.w3.org/1999/xlink" width="20.000000" height="20.000000" fill="none" customFrame="#000000">
	<defs>
		<clipPath id="clipPath_1">
			<rect width="20.000000" height="20.000000" x="0.000000" y="0.000000" fill="rgb(255,255,255)" />
		</clipPath>
	</defs>
	<g id="Group 8872">
		<g id="facebook 2" clip-path="url(#clipPath_1)" customFrame="url(#clipPath_1)">
			<rect id="facebook 2" width="20.000000" height="20.000000" x="0.000000" y="0.000000" fill="rgb(255,255,255)" fill-opacity="0" />
			<g id="Group">
				<path id="Vector" d="M10 20C15.5228 20 20 15.5228 20 10C20 4.47715 15.5228 0 10 0C4.47715 0 0 4.47715 0 10C0 15.5228 4.47715 20 10 20Z" fill="rgb(255,255,255)" fill-rule="evenodd" />
				<path id="Vector" d="M12.5139 10.3914L10.7295 10.3914L10.7295 16.9285L8.02602 16.9285L8.02602 10.3914L6.74023 10.3914L6.74023 8.09398L8.02602 8.09398L8.02602 6.6073C8.02602 5.54416 8.53103 3.87939 10.7536 3.87939L12.7561 3.88777L12.7561 6.1178L11.3031 6.1178C11.0648 6.1178 10.7297 6.23688 10.7297 6.74402L10.7297 8.09612L12.7501 8.09612L12.5139 10.3914Z" fill="rgb(48,95,100)" fill-rule="nonzero" />
			</g>
		</g>
	</g>
</svg>
