<svg viewBox="0 0 10 10" xmlns="http://www.w3.org/2000/svg" xmlns:xlink="http://www.w3.org/1999/xlink" width="10.000000" height="10.000000" fill="none">
	<rect id="heart (2) 1" width="10.000000" height="9.999981" x="0.000000" y="0.000000" fill="rgb(255,255,255)" fill-opacity="0" />
	<path id="Vector" d="M4.99999 9.44365C4.85763 9.44365 4.72037 9.39207 4.61341 9.29838C4.20943 8.94514 3.81995 8.61319 3.47633 8.32037L3.47457 8.31885C2.46711 7.46031 1.59713 6.71889 0.991819 5.98853C0.31517 5.17203 0 4.39788 0 3.55216C0 2.73048 0.281753 1.97242 0.793303 1.41754C1.31096 0.856094 2.02125 0.546875 2.79357 0.546875C3.37081 0.546875 3.89945 0.72937 4.36477 1.08925C4.5996 1.2709 4.81246 1.49322 4.99999 1.75255C5.1876 1.49322 5.40038 1.2709 5.63529 1.08925C6.1006 0.72937 6.62924 0.546875 7.20648 0.546875C7.97873 0.546875 8.6891 0.856094 9.20675 1.41754C9.7183 1.97242 9.99998 2.73048 9.99998 3.55216C9.99998 4.39788 9.68489 5.17203 9.00824 5.98845C8.40292 6.71889 7.53302 7.46024 6.52571 8.3187C6.18148 8.61197 5.79139 8.94446 5.38649 9.29854C5.27961 9.39207 5.14228 9.44365 4.99999 9.44365ZM2.79357 1.13266C2.18681 1.13266 1.62941 1.37482 1.22391 1.81457C0.812376 2.26097 0.585707 2.87803 0.585707 3.55216C0.585707 4.26345 0.850066 4.89959 1.44279 5.61477C2.01568 6.30607 2.86781 7.03223 3.85444 7.87306L3.85627 7.87459C4.20119 8.16855 4.5922 8.5018 4.99915 8.85763C5.40854 8.50111 5.80016 8.16733 6.14577 7.87291C7.13233 7.03208 7.98438 6.30607 8.55727 5.61477C9.14992 4.89959 9.41427 4.26345 9.41427 3.55216C9.41427 2.87803 9.1876 2.26097 8.77608 1.81457C8.37065 1.37482 7.81317 1.13266 7.20648 1.13266C6.762 1.13266 6.3539 1.27395 5.99356 1.55258C5.67244 1.80099 5.44875 2.11502 5.3176 2.33474C5.25016 2.44773 5.13144 2.51518 4.99999 2.51518C4.86854 2.51518 4.74982 2.44773 4.68238 2.33474C4.55131 2.11502 4.32761 1.80099 4.00642 1.55258C3.64608 1.27395 3.23799 1.13266 2.79357 1.13266Z" fill="rgb(0,0,0)" fill-rule="nonzero" />
</svg>
