<svg viewBox="0 0 106.469 37.3864" xmlns="http://www.w3.org/2000/svg" xmlns:xlink="http://www.w3.org/1999/xlink" width="106.468750" height="37.386353" fill="none" customFrame="#000000">
	<rect id="Frame 14" width="106.468933" height="37.386353" x="0.000000" y="0.000000" fill="rgb(255,255,255)" fill-opacity="0" />
	<g id="Group 8908">
		<g id="g10">
			<g id="g12">
				<path id="path14" d="M12.7763 30.3129L4.49512 30.3129C3.92833 30.3129 3.44644 29.7702 3.35801 29.0328L0.00869617 1.04988C-0.0579192 0.497955 0.26667 0 0.691626 0L4.64521 0C5.21189 0 5.69379 0.542433 5.78221 1.28123L6.68552 8.82858C6.77276 9.56754 7.25584 10.1101 7.82134 10.1101L10.4429 10.1101C15.898 10.1101 19.0463 13.5886 19.8685 20.4819C20.239 23.4977 19.8842 25.8672 18.8126 27.5266C17.6356 29.349 15.548 30.3129 12.7763 30.3129ZM13.7318 20.0925C13.2789 16.1767 11.0084 16.1767 8.81307 16.1767L7.56346 16.1767L8.44011 23.4896C8.49223 23.9316 8.78277 24.2571 9.12187 24.2571L9.69457 24.2571C11.19 24.2571 12.6008 24.2571 13.3297 23.1339C13.7644 22.4636 13.8976 21.468 13.7318 20.0925Z" fill="rgb(40,59,130)" fill-rule="nonzero" transform="matrix(1,0,0,-1,0,30.3142)" />
				<path id="path16" d="M18.7565 20.7035L14.791 20.7035C14.4532 20.7035 14.1614 20.378 14.1091 19.936L13.9337 18.4744L13.6563 19.0042C12.7979 20.6462 10.8833 21.1949 8.97256 21.1949C4.59042 21.1949 0.847542 16.8213 0.118613 10.686C-0.260354 7.62554 0.278487 4.69906 1.5959 2.65834C2.80435 0.781874 4.53347 0 6.59088 0C10.1218 0 12.0798 2.99166 12.0798 2.99166L11.903 1.53964C11.8363 0.984358 12.1609 0.486536 12.5836 0.486536L16.1555 0.486536C16.7234 0.486536 17.203 1.0291 17.2927 1.76776L19.4358 19.6536C19.5038 20.2041 19.1804 20.7035 18.7565 20.7035ZM13.2289 10.5328C12.8464 7.5474 11.048 5.54306 8.75478 5.54306C7.60323 5.54306 6.68285 6.02986 6.09189 6.95217C5.50585 7.86807 5.28302 9.17171 5.46955 10.6238C5.82671 13.5837 7.65527 15.6532 9.91341 15.6532C11.0397 15.6532 11.955 15.1602 12.5581 14.2301C13.1624 13.2902 13.4019 11.9785 13.2289 10.5328Z" fill="rgb(40,59,130)" fill-rule="nonzero" transform="matrix(1,0,0,-1,18.7734,30.7991)" />
				<path id="path18" d="M18.4764 27.2908L14.4914 27.2908C14.1112 27.2908 13.7539 27.0418 13.5384 26.6253L8.04213 15.9567L5.71249 26.2089C5.56596 26.8504 5.11676 27.2908 4.60818 27.2908L0.692184 27.2908C0.216201 27.2908 -0.11426 26.6781 0.0370744 26.0877L4.42653 9.11306L0.299826 1.43626C-0.024823 0.831663 0.302101 0 0.862973 0L4.84314 0C5.22085 0 5.57455 0.242671 5.78879 0.651155L19.0431 25.8626C19.3604 26.4659 19.0347 27.2908 18.4764 27.2908Z" fill="rgb(40,59,130)" fill-rule="nonzero" transform="matrix(1,0,0,-1,40.1748,37.3864)" />
				<path id="path20" d="M12.7763 30.3129L4.49386 30.3129C3.92844 30.3129 3.44639 29.7702 3.35796 29.0328L0.008661 1.04988C-0.0577844 0.497955 0.266609 0 0.689283 0L4.93952 0C5.33415 0 5.67218 0.3796 5.73383 0.896664L6.68428 8.82858C6.77144 9.56754 7.25475 10.1101 7.82017 10.1101L10.4406 10.1101C15.8967 10.1101 19.0439 13.5886 19.8673 20.4819C20.2392 23.4977 19.8819 25.8672 18.8102 27.5266C17.6344 29.349 15.548 30.3129 12.7763 30.3129ZM13.7318 20.0925C13.2801 16.1767 11.0098 16.1767 8.81306 16.1767L7.56474 16.1767L8.44268 23.4896C8.49473 23.9316 8.78274 24.2571 9.12306 24.2571L9.6958 24.2571C11.1902 24.2571 12.602 24.2571 13.3308 23.1339C13.7656 22.4636 13.8975 21.468 13.7318 20.0925Z" fill="rgb(70,155,219)" fill-rule="nonzero" transform="matrix(1,0,0,-1,59.0684,30.3142)" />
				<path id="path22" d="M18.7515 20.7035L14.7883 20.7035C14.448 20.7035 14.1584 20.378 14.1077 19.936L13.9321 18.4744L13.6537 19.0042C12.7952 20.6462 10.8819 21.1949 8.97116 21.1949C4.58879 21.1949 0.847383 16.8213 0.118252 10.686C-0.259451 7.62554 0.276917 4.69906 1.59446 2.65834C2.80538 0.781874 4.53195 0 6.58923 0C10.1202 0 12.0782 2.99166 12.0782 2.99166L11.9013 1.53964C11.8349 0.984358 12.1593 0.486536 12.5845 0.486536L16.1553 0.486536C16.7208 0.486536 17.2028 1.0291 17.2912 1.76776L19.4357 19.6536C19.5009 20.2041 19.1765 20.7035 18.7515 20.7035ZM13.2237 10.5328C12.8434 7.5474 11.0428 5.54306 8.74959 5.54306C7.60031 5.54306 6.67765 6.02986 6.08672 6.95217C5.50083 7.86807 5.28028 9.17171 5.46446 10.6238C5.82397 13.5837 7.65008 15.6532 9.90846 15.6532C11.0345 15.6532 11.9498 15.1602 12.5529 14.2301C13.1595 13.2902 13.3992 11.9785 13.2237 10.5328Z" fill="rgb(70,155,219)" fill-rule="nonzero" transform="matrix(1,0,0,-1,77.8457,30.7991)" />
				<path id="path24" d="M3.40774 29.5452L0.00866101 1.04988C-0.0577845 0.497955 0.266609 0 0.689284 0L4.1063 0C4.67424 0 5.15629 0.542434 5.24345 1.28123L8.59504 29.2625C8.66174 29.8148 8.33734 30.3142 7.91466 30.3142L4.08811 30.3142C3.75032 30.3129 3.45979 29.9869 3.40774 29.5452Z" fill="rgb(70,155,219)" fill-rule="nonzero" transform="matrix(1,0,0,-1,97.8652,30.3142)" />
			</g>
		</g>
	</g>
</svg>
