<svg viewBox="0 0 50 50" xmlns="http://www.w3.org/2000/svg" xmlns:xlink="http://www.w3.org/1999/xlink" width="50.000000" height="50.000000" fill="none">
	<rect id="free-delivery 1" width="50.000000" height="50.000000" x="0.000000" y="0.000000" fill="rgb(255,255,255)" fill-opacity="0" />
	<g id="Group">
		<path id="Vector" d="M40.6901 20.4121L35.8789 20.4121L35.8789 17.1699C35.8789 16.3609 35.223 15.7051 34.4141 15.7051L1.46484 15.7051C0.655859 15.7051 0 16.3609 0 17.1699L0 43.8431C0 44.6521 0.655859 45.3079 1.46484 45.3079L6.45312 45.3079C8.04727 51.5463 16.851 51.5421 18.4427 45.3079L31.5572 45.3079C33.1514 51.5463 41.9551 51.5421 43.5468 45.3079L48.5352 45.3079C49.3441 45.3079 50 44.6521 50 43.8431L50 29.722C50 24.5885 45.8235 20.4121 40.6901 20.4121ZM12.4479 47.0853C10.6602 47.0853 9.20576 45.6308 9.20576 43.8431C9.38379 39.5419 15.5128 39.5432 15.6901 43.8431C15.6901 45.6308 14.2356 47.0853 12.4479 47.0853ZM32.9492 39.7371C32.2866 40.4791 31.8009 41.3814 31.5572 42.3781L18.4427 42.3781C16.8485 36.1398 8.04482 36.144 6.45312 42.3781L2.92969 42.3781L2.92969 18.6347L32.9492 18.6347L32.9492 39.7371ZM37.5521 47.0853C35.7643 47.0853 34.3099 45.6308 34.3099 43.8431C34.4879 39.5419 40.6169 39.5432 40.7942 43.8431C40.7942 45.6308 39.3398 47.0853 37.5521 47.0853ZM47.0703 42.3782L43.5484 42.3782C42.8891 39.6798 40.4508 37.6712 37.5521 37.6712L35.8789 37.6712L35.8789 23.3418L39.2253 23.3418L39.2253 32.8601C39.2253 33.669 39.8812 34.3249 40.6901 34.3249L47.0703 34.3249L47.0703 42.3782ZM47.0703 31.3951L42.155 31.3951L42.155 23.5114C44.9692 24.1752 47.0703 26.7079 47.0703 29.722L47.0703 31.3951Z" fill="rgb(36,77,77)" fill-rule="nonzero" />
		<path id="Vector" d="M35.9828 12.3586L39.9053 12.3586C41.8489 12.2812 41.8474 9.50562 39.9053 9.42896L37.712 9.42896L38.0082 7.65161L39.9053 7.65161C41.8489 7.57417 41.8474 4.79858 39.9053 4.72192L38.4964 4.72192L38.7926 2.94458L41.4743 2.94458C43.4178 2.86714 43.4164 0.0915527 41.4743 0.0148926L37.5517 0.0148926C36.8356 0.0148926 36.2245 0.532568 36.1068 1.23892L34.5378 10.653C34.389 11.546 35.0789 12.3586 35.9828 12.3586Z" fill="rgb(34,34,34)" fill-rule="nonzero" />
		<path id="Vector" d="M26.5686 12.3586L30.4912 12.3586C32.4347 12.2812 32.4333 9.50562 30.4912 9.42896L28.2978 9.42896L28.594 7.65161L30.4912 7.65161C32.4347 7.57417 32.4333 4.79858 30.4912 4.72192L29.0824 4.72192L29.3787 2.94458L32.0602 2.94458C34.0038 2.86714 34.0023 0.0915527 32.0602 0.0148926L28.1377 0.0148926C27.4216 0.0148926 26.8105 0.532568 26.6928 1.23892L25.1238 10.653C24.975 11.546 25.6648 12.3586 26.5686 12.3586Z" fill="rgb(36,77,77)" fill-rule="nonzero" />
		<path id="Vector" d="M15.3455 12.3387C16.4828 12.5283 16.9631 11.5428 17.0312 11.1346L17.2714 9.69341L20.1553 12.0316C20.8219 12.5719 21.7379 12.4057 22.2158 11.8163C22.7253 11.1878 22.6289 10.2654 22.0004 9.75591L20.3724 8.43608L21.7313 8.43608C22.4473 8.43608 23.0584 7.91841 23.1762 7.21216L24.0917 1.72065C24.2406 0.82749 23.5507 0.0148926 22.6468 0.0148926L17.1553 0.0148926C16.4392 0.0148926 15.8281 0.532568 15.7104 1.23892L14.8013 6.69302C14.8009 6.69497 14.8007 6.69702 14.8003 6.69897C14.7996 6.70288 14.7991 6.70679 14.7984 6.71069C14.7952 6.72856 14.7919 6.74653 14.7894 6.7646L14.1413 10.653C14.0082 11.4509 14.5474 12.2057 15.3455 12.3387ZM18.3962 2.94458L20.9175 2.94458L20.4905 5.5064L17.9692 5.5064L18.3962 2.94458Z" fill="rgb(36,77,77)" fill-rule="nonzero" />
		<path id="Vector" d="M6.7155 12.3387C7.8528 12.5283 8.33317 11.5427 8.40124 11.1346L8.85095 8.43621L10.8788 8.43621C12.8223 8.35876 12.8209 5.58318 10.8788 5.50652L9.33923 5.50652L9.76618 2.9447L12.4478 2.9447C14.3914 2.86726 14.3899 0.0916748 12.4478 0.0150146L8.52526 0.0150146C7.80915 0.0150146 7.19802 0.53269 7.08034 1.23904L5.5114 10.6531C5.37829 11.451 5.91745 12.2057 6.7155 12.3387Z" fill="rgb(36,77,77)" fill-rule="nonzero" />
	</g>
</svg>
