<svg viewBox="0 0 50 50" xmlns="http://www.w3.org/2000/svg" xmlns:xlink="http://www.w3.org/1999/xlink" width="50.000000" height="50.000000" fill="none">
	<rect id="guarantee 1" width="50.000000" height="50.000000" x="0.000000" y="0.000000" fill="rgb(255,255,255)" fill-opacity="0" />
	<g id="Group">
		<path id="Vector" d="M47.3217 17.7177C46.6619 15.6747 46.9432 12.608 45.2283 10.2402C43.5 7.85365 40.494 7.17533 38.7967 5.93392C37.1172 4.7056 35.5547 2.03265 32.7296 1.11077C29.9842 0.214876 27.1768 1.4306 25 1.4306C22.8235 1.4306 20.0163 0.214583 17.2704 1.11068C14.4458 2.03236 12.882 4.70589 11.2036 5.93363C9.50811 7.17357 6.4999 7.85374 4.77187 10.2399C3.0585 12.6058 3.33691 15.6795 2.67832 17.7176C2.05156 19.6574 0 21.9854 0 25.0002C0 28.0169 2.04922 30.336 2.67832 32.2828C3.33809 34.3257 3.05684 37.3924 4.77168 39.7603C6.4999 42.1469 9.50576 42.8251 11.2033 44.0666C12.8825 45.2948 14.4453 47.9679 17.2704 48.8897C20.014 49.785 22.8258 48.5699 25 48.5699C27.1712 48.5699 29.9896 49.7837 32.7296 48.8898C35.5543 47.9681 37.1171 45.2952 38.7964 44.0668C40.4919 42.8269 43.5001 42.1467 45.2281 39.7606C46.9416 37.3946 46.663 34.3211 47.3217 32.2828C47.9484 30.343 50 28.015 50 25.0002C50 21.9837 47.9513 19.6654 47.3217 17.7177ZM43.6048 31.0817C42.8357 33.462 43.0372 36.126 42.0646 37.4692C41.0788 38.8302 38.4891 39.4519 36.4907 40.9136C34.5143 42.359 33.129 44.6503 31.5179 45.176C29.9937 45.6735 27.5097 44.6634 25.0001 44.6634C22.4722 44.6634 20.0138 45.6756 18.4822 45.176C16.8713 44.6503 15.488 42.3606 13.5094 40.9135C11.5229 39.4607 8.91836 38.8262 7.93545 37.469C6.96592 36.1303 7.15977 33.4479 6.39541 31.0818C5.64619 28.7635 3.90625 26.7562 3.90625 25.0002C3.90625 23.2425 5.64463 21.2421 6.39522 18.9188C7.16426 16.5385 6.96279 13.8744 7.93545 12.5313C8.92061 11.1711 11.5123 10.5474 13.5094 9.08685C15.4921 7.63675 16.8687 5.35091 18.482 4.82445C20.005 4.32757 22.4971 5.33704 24.9999 5.33704C27.5324 5.33704 29.9847 4.32415 31.5178 4.82445C33.1285 5.35003 34.513 7.64066 36.4907 9.08695C38.477 10.5398 41.0816 11.1743 42.0646 12.5314C43.0343 13.8703 42.8394 16.55 43.6046 18.9186L43.6046 18.9187C44.3538 21.2369 46.0938 23.2443 46.0938 25.0002C46.0938 26.7579 44.3554 28.7583 43.6048 31.0817ZM33.9983 18.7312C34.7611 19.494 34.7611 20.7306 33.9983 21.4933L24.2224 31.2693C23.4596 32.0321 22.2229 32.032 21.4602 31.2693L16.0018 25.8109C15.239 25.0481 15.2389 23.8115 16.0017 23.0488C16.7645 22.2861 18.0013 22.286 18.7638 23.0488L22.8412 27.1261L31.236 18.7313C31.9988 17.9685 33.2355 17.9685 33.9983 18.7312Z" fill="rgb(36,77,77)" fill-rule="nonzero" />
	</g>
</svg>
