<svg viewBox="0 0 24 24" xmlns="http://www.w3.org/2000/svg" xmlns:xlink="http://www.w3.org/1999/xlink" width="24.000000" height="24.000000" fill="none" customFrame="#000000">
	<defs>
		<clipPath id="clipPath_0">
			<rect width="24.000000" height="24.000000" x="0.000000" y="0.000000" fill="rgb(255,255,255)" />
		</clipPath>
	</defs>
	<g id="Group 8923">
		<g id="kitchen (1) 1" clip-path="url(#clipPath_0)" customFrame="url(#clipPath_0)">
			<rect id="kitchen (1) 1" width="24.000000" height="24.000000" x="0.000000" y="0.000000" fill="rgb(102,102,102)" fill-opacity="0" />
			<g id="Group">
				<g id="Group">
					<g id="Group">
						<path id="Vector" d="M0.00585938 24L9.89184 24L9.89184 18.3308L0.00585938 18.3308L0.00585938 24ZM2.16802 19.7989L7.77652 19.7989L7.77652 21.2045L2.16802 21.2045L2.16802 19.7989Z" fill="rgb(102,102,102)" fill-rule="nonzero" />
						<path id="Vector" d="M0.00585938 16.9251L9.89184 16.9251L9.89184 11.3496L0.00585938 11.3496L0.00585938 16.9251ZM2.16802 12.8452L7.77652 12.8452L7.77652 14.2508L2.16802 14.2508L2.16802 12.8452Z" fill="rgb(102,102,102)" fill-rule="nonzero" />
						<path id="Vector" d="M11.2969 23.9999L23.994 23.9999L23.994 11.3496L11.2969 11.3496L11.2969 23.9999ZM19.7304 12.8452L21.136 12.8452L21.136 14.2855L19.7304 14.2855L19.7304 12.8452ZM16.9193 12.8452L18.3248 12.8452L18.3248 14.2855L16.9193 14.2855L16.9193 12.8452ZM14.1081 12.8452L15.5137 12.8452L15.5137 14.2855L14.1081 14.2855L14.1081 12.8452ZM14.1081 15.543L21.136 15.543L21.136 21.1888L14.1081 21.1888L14.1081 15.543Z" fill="rgb(102,102,102)" fill-rule="nonzero" />
						<path id="Vector" d="M19.7304 3.24052L19.7304 0L15.5137 0L15.5137 3.24286L11.2969 6.054L11.2969 8.53852L23.994 8.53852L23.994 6.05166L19.7304 3.24052Z" fill="rgb(102,102,102)" fill-rule="nonzero" />
					</g>
				</g>
			</g>
		</g>
	</g>
</svg>
