<svg viewBox="0 0 24 24" xmlns="http://www.w3.org/2000/svg" xmlns:xlink="http://www.w3.org/1999/xlink" width="24.000000" height="24.000000" fill="none" customFrame="#000000">
	<defs>
		<clipPath id="clipPath_2">
			<rect width="24.000000" height="24.000000" x="0.000000" y="0.000000" fill="rgb(255,255,255)" />
		</clipPath>
	</defs>
	<g id="Group 8926">
		<g id="workplace 1" clip-path="url(#clipPath_2)" customFrame="url(#clipPath_2)">
			<rect id="workplace 1" width="24.000000" height="24.000000" x="0.000000" y="0.000000" fill="rgb(255,255,255)" fill-opacity="0" />
			<g id="Group">
				<path id="Vector" d="M24 6.32812L24 1.64062C24 0.735984 23.264 0 22.3594 0L13.9219 0C13.0172 0 12.2812 0.735984 12.2812 1.64062L12.2812 6.32812C12.2812 7.23277 13.0172 7.96875 13.9219 7.96875L15.8339 7.96875L15.4823 9.375L11.5469 9.375L11.4041 6.23236C11.3527 5.10323 10.4271 4.21875 9.29686 4.21875L5.42194 4.21875C4.29169 4.21875 3.36609 5.10323 3.31472 6.23236L3.17189 9.375L0.703125 9.375C0.314812 9.375 0 9.68981 0 10.0781L0 22.2656C0 22.6539 0.314812 22.9688 0.703125 22.9688C1.09144 22.9688 1.40625 22.6539 1.40625 22.2656L1.40625 13.5938L3.00422 13.5938C3.05541 14.1726 3.29836 14.7122 3.70762 15.1405C4.12378 15.576 4.66275 15.8449 5.25005 15.9171L5.25005 17.1094C5.25005 17.9344 5.86233 18.6189 6.6563 18.733L6.6563 20.4227L3.885 21.2145C3.58308 21.3008 3.375 21.5767 3.375 21.8906L3.375 23.2969C3.375 23.6852 3.68981 24 4.07812 24C4.46644 24 4.78125 23.6852 4.78125 23.2969L4.78125 22.421L6.65625 21.8852L6.65625 22.8281C6.65625 23.2164 6.97106 23.5312 7.35938 23.5312C7.74769 23.5312 8.0625 23.2164 8.0625 22.8281L8.0625 21.8853L9.9375 22.421L9.9375 23.2969C9.9375 23.6852 10.2523 24 10.6406 24C11.0289 24 11.3438 23.6852 11.3438 23.2969L11.3438 21.8906C11.3438 21.5767 11.1357 21.3008 10.8338 21.2145L8.0625 20.4228L8.0625 18.733C8.85647 18.6189 9.46875 17.9345 9.46875 17.1094L9.46875 15.9172C10.056 15.845 10.595 15.576 11.0112 15.1406C11.4204 14.7123 11.6634 14.1727 11.7146 13.5938L13.2188 13.5938L13.2188 22.2657C13.2188 22.654 13.5336 22.9688 13.9219 22.9688C14.3102 22.9688 14.625 22.654 14.625 22.2657L14.625 20.1563L22.5938 20.1563L22.5938 22.2657C22.5938 22.654 22.9086 22.9688 23.2969 22.9688C23.6852 22.9688 24 22.654 24 22.2657L24 10.0781C24 9.68981 23.6852 9.375 23.2969 9.375L20.799 9.375L20.4474 7.96875L22.3594 7.96875C23.264 7.96875 24 7.23277 24 6.32812ZM3.04402 12.1875L1.40625 12.1875L1.40625 10.7812L3.10795 10.7812L3.04402 12.1875ZM8.0625 17.1094C8.0625 17.2386 7.95736 17.3438 7.82812 17.3438L6.89062 17.3438C6.76139 17.3438 6.65625 17.2386 6.65625 17.1094L6.65625 15.9375L8.0625 15.9375L8.0625 17.1094ZM9.99445 14.169C9.77123 14.4026 9.47034 14.5312 9.14723 14.5312L5.57156 14.5312C5.24845 14.5312 4.94756 14.4026 4.72434 14.169C4.50108 13.9354 4.38623 13.6289 4.40091 13.3061L4.71952 6.29616C4.73663 5.91984 5.04516 5.625 5.42189 5.625L9.29681 5.625C9.67359 5.625 9.98213 5.91984 9.99923 6.2962L10.3178 13.3062C10.3326 13.629 10.2177 13.9354 9.99445 14.169ZM22.5938 18.75L14.625 18.75L14.625 13.5938L22.5938 13.5938L22.5938 18.75ZM22.5938 10.7812L22.5938 12.1875L11.6747 12.1875L11.6108 10.7812L22.5938 10.7812ZM16.9318 9.375L17.2833 7.96875L18.9979 7.96875L19.3494 9.375L16.9318 9.375ZM13.9219 6.5625C13.7926 6.5625 13.6875 6.45736 13.6875 6.32812L13.6875 1.64062C13.6875 1.51139 13.7926 1.40625 13.9219 1.40625L22.3594 1.40625C22.4886 1.40625 22.5938 1.51139 22.5938 1.64062L22.5938 6.32812C22.5938 6.45736 22.4886 6.5625 22.3594 6.5625L13.9219 6.5625Z" fill="rgb(255,255,255)" fill-rule="nonzero" />
				<path id="Vector" d="M17.2031 16.4062L20.0156 16.4062C20.4039 16.4062 20.7188 16.0914 20.7188 15.7031C20.7188 15.3148 20.4039 15 20.0156 15L17.2031 15C16.8148 15 16.5 15.3148 16.5 15.7031C16.5 16.0914 16.8148 16.4062 17.2031 16.4062Z" fill="rgb(255,255,255)" fill-rule="nonzero" />
			</g>
		</g>
	</g>
</svg>
