<svg viewBox="0 0 10 10" xmlns="http://www.w3.org/2000/svg" xmlns:xlink="http://www.w3.org/1999/xlink" width="10.000000" height="10.000000" fill="none">
	<rect id="share 1" width="10.000000" height="10.000000" x="0.000000" y="0.000000" fill="rgb(255,255,255)" fill-opacity="0" />
	<g id="Group">
		<g id="Group">
			<path id="Vector" d="M7.92969 6.48438C7.35086 6.48438 6.83654 6.76566 6.51606 7.19865L3.75688 5.78859C3.80316 5.63133 3.82812 5.46502 3.82812 5.29297C3.82812 5.05994 3.78244 4.83742 3.69973 4.63373L6.59152 2.89627C6.91418 3.27498 7.39434 3.51562 7.92969 3.51562C8.89894 3.51562 9.6875 2.72707 9.6875 1.75781C9.6875 0.788555 8.89894 0 7.92969 0C6.96043 0 6.17188 0.788555 6.17188 1.75781C6.17188 1.98184 6.21408 2.19615 6.29082 2.39336L3.3918 4.13516C3.06938 3.76762 2.5965 3.53516 2.07031 3.53516C1.10105 3.53516 0.3125 4.32371 0.3125 5.29297C0.3125 6.26223 1.10105 7.05078 2.07031 7.05078C2.65863 7.05078 3.18031 6.76023 3.49955 6.31512L6.25072 7.72107C6.19949 7.8858 6.17188 8.06082 6.17188 8.24219C6.17188 9.21144 6.96043 10 7.92969 10C8.89894 10 9.6875 9.21144 9.6875 8.24219C9.6875 7.27293 8.89894 6.48438 7.92969 6.48438ZM7.92969 0.585938C8.57586 0.585938 9.10156 1.11164 9.10156 1.75781C9.10156 2.40398 8.57586 2.92969 7.92969 2.92969C7.28352 2.92969 6.75781 2.40398 6.75781 1.75781C6.75781 1.11164 7.28352 0.585938 7.92969 0.585938ZM2.07031 6.46484C1.42414 6.46484 0.898438 5.93914 0.898438 5.29297C0.898438 4.6468 1.42414 4.12109 2.07031 4.12109C2.71648 4.12109 3.24219 4.6468 3.24219 5.29297C3.24219 5.93914 2.71648 6.46484 2.07031 6.46484ZM7.92969 9.41406C7.28352 9.41406 6.75781 8.88836 6.75781 8.24219C6.75781 7.59602 7.28352 7.07031 7.92969 7.07031C8.57586 7.07031 9.10156 7.59602 9.10156 8.24219C9.10156 8.88836 8.57586 9.41406 7.92969 9.41406Z" fill="rgb(0,0,0)" fill-rule="nonzero" />
		</g>
	</g>
</svg>
