<svg viewBox="0 0 24 24" xmlns="http://www.w3.org/2000/svg" xmlns:xlink="http://www.w3.org/1999/xlink" width="24.000000" height="24.000000" fill="none">
	<rect id="sofa 1" width="24.000000" height="24.000000" x="0.000000" y="0.000000" fill="rgb(102,102,102)" fill-opacity="0" />
	<g id="Group">
		<path id="Vector" d="M4.45312 11.2969L10.5938 11.2969C11.1336 11.2969 11.6265 11.501 12 11.8357C12.3735 11.5009 12.8664 11.2969 13.4062 11.2969L19.5469 11.2969L19.5469 3.75633C19.5469 3.36984 19.2376 3.04823 18.8512 3.04688C18.8453 3.04688 19.0911 3.04688 5.15625 3.04688C4.75612 3.04688 4.45312 3.37491 4.45312 3.75633L4.45312 11.2969Z" fill="rgb(102,102,102)" fill-rule="nonzero" />
		<path id="Vector" d="M12.7031 13.4062L12.7031 15.0469L19.5469 15.0469C19.5469 14.0083 19.5469 13.795 19.5469 12.7031L13.4062 12.7031C13.0185 12.7031 12.7031 13.0185 12.7031 13.4062Z" fill="rgb(102,102,102)" fill-rule="nonzero" />
		<path id="Vector" d="M21.7272 7.92298C21.2938 7.93648 20.9531 8.30004 20.9531 8.73363C20.9531 8.84492 20.9531 16.1494 20.9531 15.75C20.9531 16.1383 20.6383 16.4532 20.25 16.4532C19.6879 16.4532 3.21623 16.4532 3.75 16.4532C3.36169 16.4532 3.04688 16.1383 3.04688 15.75C3.04688 15.4906 3.04688 8.66599 3.04688 8.73363C3.04688 8.30004 2.70623 7.93648 2.27283 7.92298C1.02361 7.88407 0 8.88345 0 10.125L0 17.3438C0 18.5088 0.944391 19.4532 2.10938 19.4532L3.04688 19.4532L3.04688 20.2302C3.04688 20.6088 3.33783 20.9345 3.71602 20.9524C4.1198 20.9714 4.45312 20.6496 4.45312 20.25L4.45312 19.4532L19.5469 19.4532L19.5469 20.2302C19.5469 20.6088 19.8378 20.9345 20.216 20.9524C20.6198 20.9714 20.9531 20.6496 20.9531 20.25L20.9531 19.4532L21.8906 19.4532C23.0556 19.4532 24 18.5088 24 17.3438L24 10.1646C24 8.86662 22.9684 7.88431 21.7272 7.92298Z" fill="rgb(102,102,102)" fill-rule="nonzero" />
		<path id="Vector" d="M11.2969 13.4062C11.2969 13.0185 10.9815 12.7031 10.5938 12.7031L4.45312 12.7031L4.45312 15.0469L11.2969 15.0469L11.2969 13.4062Z" fill="rgb(102,102,102)" fill-rule="nonzero" />
	</g>
</svg>
