<svg viewBox="0 0 16 16" xmlns="http://www.w3.org/2000/svg" xmlns:xlink="http://www.w3.org/1999/xlink" width="16.000000" height="16.000000" fill="none">
	<rect id="star 2" width="16.000000" height="16.000000" x="0.000000" y="0.000000" fill="rgb(255,255,255)" fill-opacity="0" />
	<path id="Vector" d="M15.9583 6.13748C15.8536 5.81349 15.5662 5.58339 15.2262 5.55275L10.6082 5.13342L8.78208 0.859266C8.64744 0.546026 8.34079 0.343262 8.00008 0.343262C7.65938 0.343262 7.35273 0.546026 7.21808 0.859999L5.39198 5.13342L0.773211 5.55275C0.433847 5.58412 0.147219 5.81349 0.0418692 6.13748C-0.0634802 6.46146 0.0338123 6.81682 0.290533 7.04082L3.78122 10.1022L2.7519 14.6364C2.67658 14.9697 2.80598 15.3143 3.0826 15.5143C3.23128 15.6217 3.40524 15.6764 3.58066 15.6764C3.73191 15.6764 3.88193 15.6356 4.01658 15.5551L8.00008 13.1743L11.9821 15.5551C12.2735 15.7304 12.6408 15.7144 12.9168 15.5143C13.1936 15.3137 13.3229 14.969 13.2475 14.6364L12.2182 10.1022L15.7089 7.04143C15.9656 6.81682 16.0636 6.46207 15.9583 6.13748Z" fill="rgb(255,182,36)" fill-rule="nonzero" />
	<path id="Vector" d="M426.625 6.13748C426.521 5.81349 426.233 5.58339 425.893 5.55275L421.275 5.13342L419.449 0.859266C419.314 0.546026 419.008 0.343262 418.667 0.343262C418.326 0.343262 418.02 0.546026 417.885 0.859999L416.059 5.13342L411.44 5.55275C411.101 5.58412 410.814 5.81349 410.709 6.13748C410.604 6.46146 410.701 6.81682 410.958 7.04082L414.448 10.1022L413.419 14.6364C413.344 14.9697 413.473 15.3143 413.75 15.5143C413.898 15.6217 414.072 15.6764 414.248 15.6764C414.399 15.6764 414.549 15.6356 414.684 15.5551L418.667 13.1743L422.649 15.5551C422.941 15.7304 423.308 15.7144 423.584 15.5143C423.861 15.3137 423.99 14.969 423.915 14.6364L422.885 10.1022L426.376 7.04143C426.633 6.81682 426.731 6.46207 426.625 6.13748Z" fill="rgb(255,182,36)" fill-rule="nonzero" />
	<path id="Vector" d="M837.291 6.13748C837.187 5.81349 836.899 5.58339 836.559 5.55275L831.941 5.13342L830.115 0.859266C829.98 0.546026 829.674 0.343262 829.333 0.343262C828.992 0.343262 828.686 0.546026 828.551 0.859999L826.725 5.13342L822.106 5.55275C821.767 5.58412 821.48 5.81349 821.375 6.13748C821.27 6.46146 821.367 6.81682 821.624 7.04082L825.114 10.1022L824.085 14.6364C824.01 14.9697 824.139 15.3143 824.416 15.5143C824.564 15.6217 824.738 15.6764 824.914 15.6764C825.065 15.6764 825.215 15.6356 825.35 15.5551L829.333 13.1743L833.315 15.5551C833.607 15.7304 833.974 15.7144 834.25 15.5143C834.527 15.3137 834.656 14.969 834.581 14.6364L833.551 10.1022L837.042 7.04143C837.299 6.81682 837.397 6.46207 837.291 6.13748Z" fill="rgb(255,182,36)" fill-rule="nonzero" />
	<path id="Vector" d="M1247.96 6.13748C1247.85 5.81349 1247.57 5.58339 1247.23 5.55275L1242.61 5.13342L1240.78 0.859266C1240.65 0.546026 1240.34 0.343262 1240 0.343262C1239.66 0.343262 1239.35 0.546026 1239.22 0.859999L1237.39 5.13342L1232.77 5.55275C1232.43 5.58412 1232.15 5.81349 1232.04 6.13748C1231.94 6.46146 1232.03 6.81682 1232.29 7.04082L1235.78 10.1022L1234.75 14.6364C1234.68 14.9697 1234.81 15.3143 1235.08 15.5143C1235.23 15.6217 1235.41 15.6764 1235.58 15.6764C1235.73 15.6764 1235.88 15.6356 1236.02 15.5551L1240 13.1743L1243.98 15.5551C1244.27 15.7304 1244.64 15.7144 1244.92 15.5143C1245.19 15.3137 1245.32 14.969 1245.25 14.6364L1244.22 10.1022L1247.71 7.04143C1247.97 6.81682 1248.06 6.46207 1247.96 6.13748Z" fill="rgb(255,182,36)" fill-rule="nonzero" />
</svg>
