<svg viewBox="0 0 96.6582 40.4032" xmlns="http://www.w3.org/2000/svg" xmlns:xlink="http://www.w3.org/1999/xlink" width="96.658203" height="40.403168" fill="none">
	<rect id="stripe-4 1" width="96.658333" height="40.403179" x="0.000000" y="0.000000" fill="rgb(21,68,68)" fill-opacity="0" />
	<path id="Vector" d="M6.79289 15.7613C6.79289 14.7143 7.65205 14.3114 9.07531 14.3114C11.1157 14.3114 13.6932 14.9291 15.7338 16.0299L15.7338 9.72012C13.5054 8.83415 11.3037 8.48508 9.07531 8.48508C3.62469 8.48508 0 11.3312 0 16.0837C0 23.4939 10.2027 22.3127 10.2027 25.5079C10.2027 26.7427 9.12893 27.1456 7.62525 27.1456C5.39682 27.1456 2.55068 26.2326 0.295261 24.9976L0.295261 31.3878C2.79233 32.4618 5.31621 32.9181 7.62525 32.9181C13.2099 32.9181 17.0494 30.1528 17.0494 25.3467C17.0226 17.3456 6.79289 18.7684 6.79289 15.7613ZM24.9431 3.11526L18.3919 4.51133L18.3651 26.0178C18.3651 29.9918 21.3454 32.9181 25.3192 32.9181C27.5208 32.9181 29.1317 32.5154 30.0177 32.0322L30.0177 26.5817C29.1587 26.9308 24.9163 28.1658 24.9163 24.1921L24.9163 14.6605L30.0177 14.6605L30.0177 8.94157L24.9163 8.94157L24.9431 3.11526ZM38.3681 10.9283L37.9384 8.94157L32.1389 8.94157L32.1389 32.4348L38.8514 32.4348L38.8514 16.5132C40.4353 14.4458 43.1204 14.8217 43.9527 15.1169L43.9527 8.94157C43.0936 8.61931 39.9522 8.0286 38.3681 10.9283ZM45.5905 8.94157L52.3297 8.94157L52.3297 32.4348L45.5905 32.4348L45.5905 8.94157ZM45.5905 6.90098L52.3297 5.45111L52.3297 0.000671387L45.5905 1.42374L45.5905 6.90079L45.5905 6.90098ZM66.3452 8.48508C63.7139 8.48508 62.0224 9.72012 61.0828 10.5795L60.7335 8.91476L54.8268 8.91476L54.8268 40.2211L61.5391 38.7982L61.5661 31.1998C62.5327 31.8979 63.9555 32.8913 66.3184 32.8913C71.1245 32.8913 75.5009 29.025 75.5009 20.5138C75.4741 12.7273 71.0439 8.48508 66.3452 8.48508ZM64.7343 26.9844C63.1502 26.9844 62.2102 26.4207 61.5661 25.7225L61.5391 15.7613C62.2372 14.9827 63.2038 14.4458 64.7343 14.4458C67.1775 14.4458 68.8691 17.1843 68.8691 20.7016C68.8691 24.2995 67.2043 26.9844 64.7343 26.9844ZM96.6583 20.7822C96.6583 13.9087 93.3289 8.48508 86.9657 8.48508C80.5753 8.48508 76.709 13.9089 76.709 20.7286C76.709 28.8101 81.2736 32.8913 87.8247 32.8913C91.0199 32.8913 93.4363 32.1664 95.2621 31.1462L95.2621 25.7762C93.4365 26.6891 91.3421 27.253 88.684 27.253C86.0795 27.253 83.7705 26.3401 83.4752 23.1719L96.6047 23.1719C96.6047 22.8226 96.6583 21.4265 96.6583 20.7822ZM83.3946 18.2315C83.3946 15.1976 85.2474 13.9355 86.9389 13.9355C88.5766 13.9355 90.3219 15.1976 90.3219 18.2315L83.3946 18.2315Z" fill="rgb(21,68,68)" fill-opacity="0.860000014" fill-rule="nonzero" />
</svg>
