<svg viewBox="0 0 20 20" xmlns="http://www.w3.org/2000/svg" xmlns:xlink="http://www.w3.org/1999/xlink" width="20.000000" height="20.000000" fill="none" customFrame="#000000">
	<defs>
		<clipPath id="clipPath_2">
			<rect width="20.000000" height="20.000000" x="0.000000" y="0.000000" fill="rgb(255,255,255)" />
		</clipPath>
	</defs>
	<g id="Group 8873">
		<g id="twitter 2" clip-path="url(#clipPath_2)" customFrame="url(#clipPath_2)">
			<rect id="twitter 2" width="20.000000" height="20.000000" x="0.000000" y="0.000000" fill="rgb(255,255,255)" fill-opacity="0" />
			<g id="Group">
				<path id="Vector" d="M10.0009 19.9998C15.5237 19.9998 20.0008 15.5227 20.0008 9.99991C20.0008 4.47711 15.5237 0 10.0009 0C4.47809 0 0.000976562 4.47711 0.000976562 9.99991C0.000976562 15.5227 4.47809 19.9998 10.0009 19.9998Z" fill="rgb(255,255,255)" fill-rule="evenodd" />
				<g id="Group">
					<path id="Vector" d="M16.1252 7.1868C15.6967 7.37683 15.2357 7.50535 14.7522 7.56275C15.2458 7.26702 15.6246 6.79909 15.8034 6.24061C15.3416 6.51459 14.8298 6.71335 14.2856 6.82048C13.8495 6.35612 13.2283 6.06592 12.5404 6.06592C11.2206 6.06592 10.1502 7.13636 10.1502 8.45618C10.1502 8.64353 10.1714 8.82588 10.2124 9.00093C8.22587 8.90129 6.4645 7.94975 5.2855 6.50318C5.07979 6.85613 4.96179 7.26702 4.96179 7.705C4.96179 8.53408 5.38408 9.266 6.0251 9.69454C5.63346 9.68224 5.26465 9.57475 4.94254 9.39524C4.94236 9.4054 4.94236 9.41556 4.94236 9.42554C4.94236 10.5837 5.76662 11.5497 6.85988 11.7691C6.65952 11.824 6.44792 11.8531 6.23027 11.8531C6.0759 11.8531 5.92634 11.8383 5.78053 11.8105C6.08463 12.7599 6.96719 13.451 8.01338 13.4704C7.19518 14.1116 6.16467 14.4936 5.0445 14.4936C4.85198 14.4936 4.66125 14.4824 4.47461 14.4601C5.53186 15.1385 6.78857 15.5341 8.13834 15.5341C12.5349 15.5341 14.9392 11.8919 14.9392 8.73301C14.9392 8.62944 14.9369 8.52623 14.9323 8.42391C15.3997 8.08701 15.8049 7.66614 16.1252 7.1868Z" fill="rgb(48,95,100)" fill-rule="nonzero" />
				</g>
			</g>
		</g>
	</g>
</svg>
