<svg viewBox="0 0 97.2979 34" xmlns="http://www.w3.org/2000/svg" xmlns:xlink="http://www.w3.org/1999/xlink" width="97.297852" height="34.000000" fill="none">
	<rect id="Uber_logo_2018 1" width="97.297539" height="34.000000" x="0.000000" y="0.000000" fill="rgb(255,255,255)" fill-opacity="0" />
	<g id="Group">
		<path id="Vector" d="M5.59785 24.2824C6.00902 25.3807 6.57827 26.3199 7.30572 27.0998C8.03316 27.8798 8.89496 28.4767 9.89113 28.8905C10.8874 29.3044 11.9706 29.5113 13.1408 29.5113C14.2794 29.5113 15.3467 29.2964 16.343 28.8666C17.3393 28.4367 18.209 27.8319 18.9522 27.052C19.6953 26.272 20.2726 25.3409 20.6837 24.2585C21.0949 23.1761 21.3004 21.9664 21.3004 20.6293L21.3004 0L26.2816 0L26.2816 33.427L21.3479 33.427L21.3479 30.323C20.241 31.5009 18.9363 32.4082 17.4341 33.045C15.9317 33.6816 14.311 34 12.5715 34C10.8004 34 9.14794 33.6896 7.61401 33.0688C6.08019 32.448 4.75179 31.5647 3.62913 30.4185C2.50648 29.2724 1.62084 27.8957 0.972549 26.288C0.324148 24.6803 0 22.8896 0 20.9157L0 0L4.98115 0L4.98115 20.6293C4.98115 21.9664 5.18668 23.184 5.59785 24.2824Z" fill="rgb(21,68,68)" fill-rule="nonzero" />
		<path id="Vector" d="M34.8675 0L34.8675 12.1769C35.9744 11.0627 37.2554 10.1794 38.7102 9.5267C40.165 8.87402 41.7463 8.54773 43.4541 8.54773C45.2253 8.54773 46.8855 8.88195 48.4353 9.55048C49.9849 10.219 51.329 11.1263 52.4676 12.2725C53.6062 13.4186 54.5076 14.7715 55.1717 16.3314C55.8359 17.8914 56.1679 19.5469 56.1679 21.2978C56.1679 23.0486 55.8359 24.6961 55.1717 26.2401C54.5076 27.7841 53.6062 29.1292 52.4676 30.2752C51.329 31.4213 49.9849 32.3286 48.4353 32.9972C46.8855 33.6657 45.2252 33.9999 43.4541 33.9999C41.7462 33.9999 40.1571 33.6736 38.6865 33.0209C37.2158 32.3683 35.927 31.4849 34.8201 30.3707L34.8201 33.4269L30.0762 33.4269L30.0762 0L34.8675 0ZM35.4131 24.5927C35.84 25.6115 36.4331 26.5029 37.1921 27.2669C37.9511 28.031 38.8367 28.6359 39.8487 29.0816C40.8608 29.5273 41.9519 29.7501 43.1221 29.7501C44.2607 29.7501 45.3359 29.5273 46.3479 29.0816C47.3599 28.6359 48.2375 28.0311 48.9809 27.2669C49.7241 26.503 50.3171 25.6115 50.7598 24.5927C51.2026 23.574 51.424 22.4757 51.424 21.2978C51.424 20.1199 51.2026 19.0136 50.7598 17.9789C50.3171 16.9443 49.7241 16.045 48.9809 15.2809C48.2376 14.517 47.36 13.92 46.3479 13.4902C45.3358 13.0605 44.2606 12.8455 43.1221 12.8455C41.9836 12.8455 40.9083 13.0604 39.8962 13.4902C38.8842 13.9201 37.9987 14.517 37.2396 15.2809C36.4806 16.045 35.8797 16.9443 35.4369 17.9789C34.9941 19.0136 34.7728 20.1199 34.7728 21.2978C34.7726 22.4757 34.9862 23.574 35.4131 24.5927Z" fill="rgb(21,68,68)" fill-rule="nonzero" />
		<path id="Vector" d="M58.8715 16.3792C59.5039 14.8511 60.3738 13.5061 61.4806 12.3441C62.5874 11.1821 63.9001 10.2669 65.4181 9.59832C66.9362 8.92979 68.5808 8.59558 70.3519 8.59558C72.0913 8.59558 73.7043 8.91394 75.1908 9.55057C76.6772 10.1873 77.958 11.0707 79.0333 12.2009C80.1086 13.331 80.9468 14.6682 81.5476 16.2121C82.1485 17.7562 82.4489 19.4355 82.4489 21.2501L82.4489 22.826L62.7616 22.826C62.9198 23.8129 63.236 24.7281 63.7104 25.5716C64.1849 26.4153 64.7777 27.1475 65.4893 27.7683C66.2009 28.3892 67.0074 28.8747 67.9088 29.2247C68.8102 29.5749 69.7668 29.7501 70.7789 29.7501C73.657 29.7501 75.9815 28.5562 77.7526 26.1685L81.2156 28.7471C80.0138 30.3708 78.5275 31.6442 76.7564 32.5674C74.9852 33.4906 72.9928 33.9522 70.779 33.9522C68.9762 33.9522 67.2922 33.6338 65.7267 32.9971C64.1611 32.3605 62.8012 31.469 61.6469 30.3229C60.4925 29.1768 59.5833 27.8318 58.9191 26.2878C58.255 24.7439 57.9229 23.0645 57.9229 21.2499C57.9226 19.5309 58.239 17.9073 58.8715 16.3792ZM65.5368 14.4929C64.1926 15.623 63.2992 17.1273 62.8565 19.0055L77.6102 19.0055C77.1991 17.1273 76.3214 15.623 74.9773 14.4929C73.6331 13.3628 72.0597 12.7977 70.2571 12.7977C68.4543 12.7977 66.8809 13.3628 65.5368 14.4929Z" fill="rgb(21,68,68)" fill-rule="nonzero" />
		<path id="Vector" d="M91.415 15.0421C90.403 16.1563 89.8969 17.6684 89.8969 19.5786L89.8969 33.427L85.1055 33.427L85.1055 9.07304L89.8494 9.07304L89.8494 12.0815C90.4503 11.0946 91.2331 10.3146 92.1977 9.74157C93.1622 9.16846 94.3087 8.8819 95.6371 8.8819L97.2974 8.8819L97.2974 13.3707L95.305 13.3707C93.7237 13.3708 92.427 13.9278 91.415 15.0421Z" fill="rgb(21,68,68)" fill-rule="nonzero" />
	</g>
</svg>
