<svg viewBox="0 0 89.5996 32" xmlns="http://www.w3.org/2000/svg" xmlns:xlink="http://www.w3.org/1999/xlink" width="89.599609" height="32.000000" fill="none">
	<rect id="visa 1" width="89.599998" height="32.000000" x="0.000000" y="0.000000" fill="rgb(255,255,255)" fill-opacity="0" />
	<path id="Vector" d="M32.8535 29.76L37.4046 4.16003L44.5157 4.16003L40.1068 29.76L32.8535 29.76Z" fill="rgb(60,88,191)" fill-rule="nonzero" />
	<path id="Vector" d="M32.8535 29.76L38.6846 4.16003L44.5157 4.16003L40.1068 29.76L32.8535 29.76Z" fill="rgb(41,54,136)" fill-rule="nonzero" />
	<path id="Vector" d="M65.8489 4.44448C64.4267 3.87559 62.1511 3.3067 59.3066 3.3067C52.1955 3.3067 47.0755 6.86226 47.0755 11.9823C47.0755 15.8223 50.6311 17.8134 53.4755 19.0934C56.32 20.3734 57.1733 21.2267 57.1733 22.3645C57.1733 24.0711 54.8978 24.9245 52.9066 24.9245C50.0622 24.9245 48.4978 24.4978 46.08 23.5023L45.0844 23.0756L44.0889 28.9067C45.7955 29.6178 48.9244 30.3289 52.1955 30.3289C59.7333 30.3289 64.7111 26.7734 64.7111 21.3689C64.7111 18.3823 62.8622 16.1067 58.5955 14.2578C56.0355 12.9778 54.4711 12.2667 54.4711 10.9867C54.4711 9.84892 55.7511 8.71115 58.5955 8.71115C61.0133 8.71115 62.72 9.13781 64 9.7067L64.7111 9.99114L65.8489 4.44448Z" fill="rgb(60,88,191)" fill-rule="nonzero" />
	<path id="Vector" d="M65.8489 4.44448C64.4267 3.87559 62.1511 3.3067 59.3066 3.3067C52.1955 3.3067 48.3555 6.86226 48.3555 11.9823C48.3555 15.8223 50.6311 17.8134 53.4755 19.0934C56.32 20.3734 57.1733 21.2267 57.1733 22.3645C57.1733 24.0711 54.8978 24.9245 52.9066 24.9245C50.0622 24.9245 48.4978 24.4978 46.08 23.5023L45.0844 23.0756L44.0889 28.9067C45.7955 29.6178 48.9244 30.3289 52.1955 30.3289C59.7333 30.3289 64.7111 26.7734 64.7111 21.3689C64.7111 18.3823 62.8622 16.1067 58.5955 14.2578C56.0355 12.9778 54.4711 12.2667 54.4711 10.9867C54.4711 9.84892 55.7511 8.71115 58.5955 8.71115C61.0133 8.71115 62.72 9.13781 64 9.7067L64.7111 9.99114L65.8489 4.44448Z" fill="rgb(41,54,136)" fill-rule="nonzero" />
	<path id="Vector" d="M78.0803 4.16003C76.3736 4.16003 75.0936 4.30226 74.3825 6.00892L63.7158 29.76L71.3958 29.76L72.818 25.4934L81.9202 25.4934L82.7736 29.76L89.6003 29.76L83.6269 4.16003L78.0803 4.16003ZM74.8091 21.2267C75.2358 19.9467 77.6536 13.6889 77.6536 13.6889C77.6536 13.6889 78.2225 12.1245 78.6491 11.1289L79.0758 13.5467C79.0758 13.5467 80.498 19.9467 80.7825 21.3689L74.8091 21.3689L74.8091 21.2267Z" fill="rgb(60,88,191)" fill-rule="nonzero" />
	<path id="Vector" d="M79.7869 4.16003C78.0803 4.16003 76.8003 4.30226 76.0891 6.00892L63.7158 29.76L71.3958 29.76L72.818 25.4934L81.9202 25.4934L82.7736 29.76L89.6003 29.76L83.6269 4.16003L79.7869 4.16003ZM74.8091 21.2267C75.378 19.8045 77.6536 13.6889 77.6536 13.6889C77.6536 13.6889 78.2225 12.1245 78.6491 11.1289L79.0758 13.5467C79.0758 13.5467 80.498 19.9467 80.7825 21.3689L74.8091 21.3689L74.8091 21.2267Z" fill="rgb(41,54,136)" fill-rule="nonzero" />
	<path id="Vector" d="M19.7692 22.08L19.0581 18.3822C17.7781 14.1156 13.6537 9.42225 9.10254 7.14669L15.5025 29.9023L23.1825 29.9023L34.7025 4.30225L27.0225 4.30225L19.7692 22.08Z" fill="rgb(60,88,191)" fill-rule="nonzero" />
	<path id="Vector" d="M19.7692 22.08L19.0581 18.3822C17.7781 14.1156 13.6537 9.42225 9.10254 7.14669L15.5025 29.9023L23.1825 29.9023L34.7025 4.30225L28.4448 4.30225L19.7692 22.08Z" fill="rgb(41,54,136)" fill-rule="nonzero" />
	<path id="Vector" d="M0 4.16003L1.28 4.44448C10.3822 6.57781 16.64 11.9823 19.0578 18.3823L16.4978 6.29337C16.0711 4.5867 14.7911 4.16003 13.2267 4.16003L0 4.16003Z" fill="rgb(255,188,0)" fill-rule="nonzero" />
	<path id="Vector" d="M0 4.16003C9.10222 6.29337 16.64 11.84 19.0578 18.24L16.64 8.14226C16.2133 6.43559 14.7911 5.44004 13.2267 5.44004L0 4.16003Z" fill="rgb(247,152,29)" fill-rule="nonzero" />
	<path id="Vector" d="M0 4.16003C9.10222 6.29337 16.64 11.84 19.0578 18.24L17.3511 12.6934C16.9244 10.9867 16.3556 9.28003 14.3644 8.56892L0 4.16003Z" fill="rgb(237,124,0)" fill-rule="nonzero" />
	<g id="Group">
		<path id="Vector" d="M26.8797 21.2266L22.0441 16.3911L19.7686 21.7955L19.1997 18.24C17.9197 13.9733 13.7953 9.27995 9.24414 7.00439L15.6441 29.7599L23.3241 29.7599L26.8797 21.2266Z" fill="rgb(5,18,68)" fill-rule="nonzero" />
		<path id="Vector" d="M40.1059 29.7601L33.9903 23.5023L32.8525 29.7601L40.1059 29.7601Z" fill="rgb(5,18,68)" fill-rule="nonzero" />
		<path id="Vector" d="M56.4622 20.9423C57.0311 21.5112 57.3155 21.9378 57.1733 22.5067C57.1733 24.2134 54.8978 25.0667 52.9066 25.0667C50.0622 25.0667 48.4978 24.64 46.08 23.6445L45.0844 23.2178L44.0889 29.0489C45.7955 29.76 48.9244 30.4711 52.1955 30.4711C56.7466 30.4711 60.4444 29.1912 62.5778 26.9156L56.4622 20.9423Z" fill="rgb(5,18,68)" fill-rule="nonzero" />
		<path id="Vector" d="M64.7109 29.7598L71.3954 29.7598L72.8176 25.4932L81.9198 25.4932L82.7732 29.7598L89.5998 29.7598L87.182 19.3776L78.6487 11.1287L79.0754 13.4043C79.0754 13.4043 80.4976 19.8043 80.782 21.2265L74.8087 21.2265C75.3776 19.8043 77.6532 13.6887 77.6532 13.6887C77.6532 13.6887 78.222 12.1243 78.6487 11.1287" fill="rgb(5,18,68)" fill-rule="nonzero" />
	</g>
</svg>
