<svg viewBox="0 0 20 20" xmlns="http://www.w3.org/2000/svg" xmlns:xlink="http://www.w3.org/1999/xlink" width="20.000000" height="20.000000" fill="none" customFrame="#000000">
	<defs>
		<clipPath id="clipPath_0">
			<rect width="20.000000" height="20.000000" x="0.000000" y="0.000000" fill="rgb(255,255,255)" />
		</clipPath>
	</defs>
	<g id="Group 8892">
		<g id="youtube 1" clip-path="url(#clipPath_0)" customFrame="url(#clipPath_0)">
			<rect id="youtube 1" width="20.000000" height="20.000000" x="0.000000" y="0.000000" fill="rgb(255,255,255)" fill-opacity="0" />
			<path id="Vector" d="M10 20C15.5229 20 20 15.5229 20 10C20 4.47716 15.5229 0 10 0C4.47716 0 0 4.47716 0 10C0 15.5229 4.47716 20 10 20Z" fill="rgb(255,255,255)" fill-rule="evenodd" />
			<path id="Vector" d="M17.0708 2.92773C20.9761 6.83332 20.9764 13.1652 17.0708 17.0708C13.1656 20.9761 6.83332 20.9762 2.92773 17.0708L17.0708 2.92773Z" fill="rgb(255,255,255)" fill-rule="nonzero" />
			<path id="Vector" d="M19.7998 12.0024L14.8505 7.05322L9.01327 7.71783L5.48242 13.1841L12.0801 19.7816C15.9591 18.961 19.0087 15.8927 19.7998 12.0024Z" fill="rgb(255,255,255)" fill-rule="nonzero" />
			<path id="Vector" d="M15.2338 8.07002C15.2338 7.23171 14.5547 6.55225 13.7168 6.55225L6.59968 6.55225C5.76201 6.55225 5.08301 7.23188 5.08301 8.07002L5.08301 12.14C5.08301 12.9783 5.76214 13.6578 6.59968 13.6578L13.7167 13.6578C14.5547 13.6578 15.2337 12.9781 15.2337 12.14L15.2337 8.07002L15.2338 8.07002ZM9.14301 11.822L9.14301 7.99929L12.042 9.91071L9.14301 11.822Z" fill="rgb(48,95,100)" fill-rule="nonzero" />
		</g>
	</g>
</svg>
